<svg width="56" height="56" viewBox="0 0 56 56" fill="none" xmlns="http://www.w3.org/2000/svg">
<g clip-path="url(#clip0_2_18)">
<path d="M19.3626 9.57041C19.2315 9.57041 19.1206 9.54577 19.0299 9.49649C18.9392 9.44609 18.8703 9.37945 18.8233 9.29657C18.7774 9.21369 18.7544 9.12241 18.7544 9.02273C18.7544 8.93537 18.769 8.85697 18.7981 8.78753C18.8272 8.71697 18.872 8.65649 18.9325 8.60609C18.993 8.55457 19.0714 8.51257 19.1677 8.48009C19.2405 8.45657 19.3256 8.43529 19.423 8.41625C19.5216 8.39722 19.628 8.37985 19.7422 8.36417C19.8576 8.34737 19.978 8.32945 20.1034 8.31041L19.959 8.39274C19.9601 8.2673 19.9321 8.17489 19.875 8.11553C19.8178 8.05617 19.7215 8.02649 19.586 8.02649C19.5042 8.02649 19.4253 8.04554 19.3491 8.08362C19.273 8.1217 19.2198 8.18721 19.1895 8.28017L18.8199 8.16426C18.8647 8.01082 18.9498 7.88761 19.0753 7.79465C19.2018 7.70169 19.3721 7.65521 19.586 7.65521C19.7473 7.65521 19.889 7.68153 20.011 7.73417C20.1342 7.78681 20.2255 7.87305 20.2849 7.99289C20.3174 8.05673 20.337 8.12225 20.3437 8.18945C20.3504 8.25553 20.3538 8.32777 20.3538 8.40617V9.52001H19.9993V9.12689L20.0581 9.19074C19.9763 9.32178 19.8806 9.41809 19.7708 9.47969C19.6622 9.54017 19.5261 9.57041 19.3626 9.57041ZM19.4432 9.24785C19.535 9.24785 19.6134 9.23161 19.6784 9.19913C19.7434 9.16665 19.7949 9.1269 19.833 9.07986C19.8722 9.03282 19.8985 8.98857 19.9119 8.94713C19.9332 8.89561 19.945 8.83681 19.9472 8.77073C19.9506 8.70353 19.9522 8.64921 19.9522 8.60777L20.0766 8.64473C19.9545 8.66377 19.8498 8.68058 19.7624 8.69513C19.675 8.70969 19.6 8.72369 19.5373 8.73713C19.4746 8.74945 19.4191 8.76345 19.371 8.77913C19.3239 8.79593 19.2842 8.81553 19.2517 8.83793C19.2192 8.86033 19.194 8.88609 19.1761 8.91521C19.1593 8.94433 19.1509 8.9785 19.1509 9.0177C19.1509 9.06249 19.1621 9.10225 19.1845 9.13697C19.2069 9.17057 19.2394 9.19745 19.2819 9.21761C19.3256 9.23777 19.3794 9.24785 19.4432 9.24785ZM20.7911 9.52001V7.70562H21.149V8.14745L21.1053 8.09033C21.1277 8.02985 21.1574 7.97497 21.1943 7.92569C21.2324 7.87529 21.2778 7.83385 21.3304 7.80137C21.3752 7.77113 21.4245 7.74762 21.4782 7.73082C21.5331 7.7129 21.5891 7.70225 21.6462 7.69889C21.7034 7.69441 21.7588 7.69666 21.8126 7.70562V8.08362C21.7588 8.06794 21.6966 8.06289 21.6261 8.06849C21.5566 8.07409 21.4939 8.09369 21.4379 8.12729C21.3819 8.15753 21.336 8.19617 21.3002 8.24321C21.2654 8.29025 21.2397 8.34402 21.2229 8.4045C21.2061 8.46386 21.1977 8.52825 21.1977 8.59769V9.52001H20.7911ZM23.3881 9.52001V8.64641C23.3881 8.58929 23.3842 8.52601 23.3764 8.45657C23.3685 8.38713 23.35 8.3205 23.3209 8.25666C23.2929 8.1917 23.2504 8.13849 23.1932 8.09705C23.1372 8.05561 23.0611 8.03489 22.9648 8.03489C22.9132 8.03489 22.8623 8.04329 22.8119 8.06009C22.7615 8.07689 22.7156 8.10601 22.6741 8.14745C22.6338 8.18777 22.6013 8.24377 22.5767 8.31545C22.552 8.38601 22.5397 8.47673 22.5397 8.58761L22.2995 8.48514C22.2995 8.33058 22.3292 8.19058 22.3885 8.06514C22.449 7.9397 22.5375 7.84001 22.654 7.76609C22.7704 7.69105 22.9138 7.65353 23.084 7.65353C23.2184 7.65353 23.3293 7.67593 23.4167 7.72073C23.504 7.76553 23.5735 7.82266 23.625 7.8921C23.6765 7.96154 23.7146 8.03546 23.7392 8.11386C23.7639 8.19226 23.7796 8.26673 23.7863 8.33729C23.7941 8.40673 23.798 8.46329 23.798 8.50697V9.52001H23.3881ZM22.1298 9.52001V7.70562H22.491V8.26841H22.5397V9.52001H22.1298ZM24.7439 9.57041C24.6128 9.57041 24.502 9.54577 24.4112 9.49649C24.3205 9.44609 24.2516 9.37945 24.2046 9.29657C24.1587 9.21369 24.1357 9.12241 24.1357 9.02273C24.1357 8.93537 24.1503 8.85697 24.1794 8.78753C24.2085 8.71697 24.2533 8.65649 24.3138 8.60609C24.3743 8.55457 24.4527 8.51257 24.549 8.48009C24.6218 8.45657 24.7069 8.43529 24.8044 8.41625C24.9029 8.39722 25.0093 8.37985 25.1236 8.36417C25.2389 8.34737 25.3593 8.32945 25.4848 8.31041L25.3403 8.39274C25.3414 8.2673 25.3134 8.17489 25.2563 8.11553C25.1992 8.05617 25.1028 8.02649 24.9673 8.02649C24.8856 8.02649 24.8066 8.04554 24.7304 8.08362C24.6543 8.1217 24.6011 8.18721 24.5708 8.28017L24.2012 8.16426C24.246 8.01082 24.3312 7.88761 24.4566 7.79465C24.5832 7.70169 24.7534 7.65521 24.9673 7.65521C25.1286 7.65521 25.2703 7.68153 25.3924 7.73417C25.5156 7.78681 25.6068 7.87305 25.6662 7.99289C25.6987 8.05673 25.7183 8.12225 25.725 8.18945C25.7317 8.25553 25.7351 8.32777 25.7351 8.40617V9.52001H25.3806V9.12689L25.4394 9.19074C25.3576 9.32178 25.2619 9.41809 25.1521 9.47969C25.0435 9.54017 24.9074 9.57041 24.7439 9.57041ZM24.8245 9.24785C24.9164 9.24785 24.9948 9.23161 25.0597 9.19913C25.1247 9.16665 25.1762 9.1269 25.2143 9.07986C25.2535 9.03282 25.2798 8.98857 25.2932 8.94713C25.3145 8.89561 25.3263 8.83681 25.3285 8.77073C25.3319 8.70353 25.3336 8.64921 25.3336 8.60777L25.4579 8.64473C25.3358 8.66377 25.2311 8.68058 25.1437 8.69513C25.0564 8.70969 24.9813 8.72369 24.9186 8.73713C24.8559 8.74945 24.8004 8.76345 24.7523 8.77913C24.7052 8.79593 24.6655 8.81553 24.633 8.83793C24.6005 8.86033 24.5753 8.88609 24.5574 8.91521C24.5406 8.94433 24.5322 8.9785 24.5322 9.0177C24.5322 9.06249 24.5434 9.10225 24.5658 9.13697C24.5882 9.17057 24.6207 9.19745 24.6632 9.21761C24.7069 9.23777 24.7607 9.24785 24.8245 9.24785ZM26.206 9.52001V7.05042H26.6109V9.52001H26.206ZM27.8415 9.57041C27.6746 9.57041 27.529 9.52841 27.4047 9.44441C27.2804 9.36041 27.1841 9.24617 27.1158 9.10169C27.0474 8.95721 27.0133 8.79425 27.0133 8.61281C27.0133 8.42913 27.0474 8.26561 27.1158 8.12225C27.1852 7.97777 27.2832 7.8641 27.4098 7.78122C27.5363 7.69722 27.6853 7.65521 27.8566 7.65521C28.0291 7.65521 28.1736 7.69722 28.2901 7.78122C28.4077 7.8641 28.4967 7.97777 28.5572 8.12225C28.6177 8.26673 28.6479 8.43025 28.6479 8.61281C28.6479 8.79313 28.6177 8.95609 28.5572 9.10169C28.4967 9.24617 28.4066 9.36041 28.2867 9.44441C28.1669 9.52841 28.0185 9.57041 27.8415 9.57041ZM27.9037 9.20753C28.0123 9.20753 28.0997 9.18289 28.1658 9.13361C28.233 9.08321 28.2817 9.01321 28.3119 8.92361C28.3433 8.83402 28.359 8.73041 28.359 8.61281C28.359 8.49409 28.3433 8.39049 28.3119 8.30201C28.2817 8.21241 28.2341 8.14297 28.1691 8.09369C28.1042 8.04329 28.0202 8.01809 27.9171 8.01809C27.8085 8.01809 27.7189 8.04497 27.6483 8.09873C27.5778 8.15137 27.5257 8.22305 27.4921 8.31377C27.4585 8.40337 27.4417 8.50305 27.4417 8.61281C27.4417 8.72369 27.4579 8.82449 27.4904 8.91521C27.524 9.00481 27.575 9.07594 27.6433 9.12858C27.7116 9.18122 27.7984 9.20753 27.9037 9.20753ZM28.359 9.52001V8.24657H28.3086V7.10082H28.7168V9.52001H28.359ZM29.9893 9.57041C29.8078 9.57041 29.6493 9.52953 29.5138 9.44777C29.3783 9.36601 29.273 9.25345 29.198 9.11009C29.1241 8.96561 29.0871 8.79985 29.0871 8.61281C29.0871 8.42241 29.1252 8.25553 29.2013 8.11217C29.2775 7.96881 29.3833 7.85681 29.5189 7.77617C29.6544 7.69553 29.8112 7.65521 29.9893 7.65521C30.1718 7.65521 30.3309 7.69609 30.4664 7.77785C30.6019 7.85961 30.7072 7.97273 30.7822 8.11721C30.8573 8.26057 30.8948 8.42577 30.8948 8.61281C30.8948 8.80097 30.8567 8.96729 30.7805 9.11177C30.7055 9.25513 30.6002 9.3677 30.4647 9.44946C30.3292 9.5301 30.1707 9.57041 29.9893 9.57041ZM29.9893 9.19074C30.1505 9.19074 30.2704 9.13698 30.3488 9.02946C30.4272 8.92194 30.4664 8.78305 30.4664 8.61281C30.4664 8.43697 30.4266 8.29697 30.3471 8.19281C30.2676 8.08753 30.1483 8.03489 29.9893 8.03489C29.8806 8.03489 29.791 8.05953 29.7205 8.10881C29.651 8.15697 29.5995 8.22474 29.5659 8.3121C29.5323 8.39834 29.5155 8.49857 29.5155 8.61281C29.5155 8.78865 29.5553 8.92921 29.6348 9.03449C29.7154 9.13865 29.8336 9.19074 29.9893 9.19074ZM31.9453 9.57209C31.8109 9.57209 31.7001 9.54969 31.6127 9.50489C31.5253 9.46009 31.4559 9.40297 31.4044 9.33353C31.3529 9.26409 31.3148 9.19017 31.2901 9.11177C31.2655 9.03337 31.2493 8.95945 31.2414 8.89001C31.2347 8.81945 31.2313 8.76233 31.2313 8.71865V7.70562H31.6413V8.57921C31.6413 8.63521 31.6452 8.6985 31.653 8.76906C31.6609 8.8385 31.6788 8.90569 31.7068 8.97065C31.7359 9.03449 31.7785 9.08714 31.8345 9.12858C31.8916 9.17002 31.9683 9.19074 32.0646 9.19074C32.1161 9.19074 32.1671 9.18234 32.2175 9.16553C32.2679 9.14874 32.3133 9.12018 32.3536 9.07986C32.395 9.03842 32.4281 8.98185 32.4527 8.91017C32.4773 8.83849 32.4897 8.74777 32.4897 8.63801L32.7299 8.74049C32.7299 8.89505 32.6997 9.03505 32.6392 9.16049C32.5798 9.28593 32.4919 9.38617 32.3754 9.46122C32.2589 9.53514 32.1156 9.57209 31.9453 9.57209ZM32.5384 9.52001V8.95721H32.4897V7.70562H32.8962V9.52001H32.5384ZM34.1561 9.57041C33.969 9.57041 33.8094 9.52897 33.6773 9.44609C33.5451 9.36209 33.4438 9.24785 33.3732 9.10337C33.3038 8.9589 33.2685 8.79537 33.2674 8.61281C33.2685 8.42689 33.3049 8.26225 33.3766 8.11889C33.4494 7.97441 33.5524 7.86129 33.6857 7.77953C33.819 7.69665 33.9774 7.65521 34.1611 7.65521C34.3672 7.65521 34.5414 7.7073 34.6836 7.81146C34.827 7.9145 34.9205 8.05561 34.9642 8.23481L34.561 8.34401C34.5296 8.24657 34.4775 8.17097 34.4047 8.11721C34.3319 8.06233 34.249 8.03489 34.1561 8.03489C34.0508 8.03489 33.964 8.06009 33.8957 8.11049C33.8274 8.15977 33.777 8.22809 33.7445 8.31545C33.712 8.40281 33.6958 8.50193 33.6958 8.61281C33.6958 8.78529 33.7344 8.92474 33.8117 9.03114C33.889 9.13754 34.0038 9.19074 34.1561 9.19074C34.2636 9.19074 34.3482 9.1661 34.4098 9.11682C34.4725 9.06754 34.5195 8.99641 34.5509 8.90345L34.9642 8.99585C34.9082 9.18065 34.8102 9.32289 34.6702 9.42257C34.5302 9.52113 34.3588 9.57041 34.1561 9.57041ZM35.9813 9.57209C35.8469 9.57209 35.736 9.54969 35.6486 9.50489C35.5613 9.46009 35.4918 9.40297 35.4403 9.33353C35.3888 9.26409 35.3507 9.19017 35.3261 9.11177C35.3014 9.03337 35.2852 8.95945 35.2773 8.89001C35.2706 8.81945 35.2673 8.76233 35.2673 8.71865V7.70562H35.6772V8.57921C35.6772 8.63521 35.6811 8.6985 35.6889 8.76906C35.6968 8.8385 35.7147 8.90569 35.7427 8.97065C35.7718 9.03449 35.8144 9.08714 35.8704 9.12858C35.9275 9.17002 36.0042 9.19074 36.1005 9.19074C36.1521 9.19074 36.203 9.18234 36.2534 9.16553C36.3038 9.14874 36.3492 9.12018 36.3895 9.07986C36.4309 9.03842 36.464 8.98185 36.4886 8.91017C36.5133 8.83849 36.5256 8.74777 36.5256 8.63801L36.7658 8.74049C36.7658 8.89505 36.7356 9.03505 36.6751 9.16049C36.6157 9.28593 36.5278 9.38617 36.4113 9.46122C36.2949 9.53514 36.1515 9.57209 35.9813 9.57209ZM36.5743 9.52001V8.95721H36.5256V7.70562H36.9321V9.52001H36.5743ZM37.9114 9.57041C37.7804 9.57041 37.6695 9.54577 37.5788 9.49649C37.4881 9.44609 37.4192 9.37945 37.3722 9.29657C37.3262 9.21369 37.3033 9.12241 37.3033 9.02273C37.3033 8.93537 37.3178 8.85697 37.347 8.78753C37.3761 8.71697 37.4209 8.65649 37.4814 8.60609C37.5418 8.55457 37.6202 8.51257 37.7166 8.48009C37.7894 8.45657 37.8745 8.43529 37.9719 8.41625C38.0705 8.39722 38.1769 8.37985 38.2911 8.36417C38.4065 8.34737 38.5269 8.32945 38.6523 8.31041L38.5078 8.39274C38.509 8.2673 38.481 8.17489 38.4238 8.11553C38.3667 8.05617 38.2704 8.02649 38.1349 8.02649C38.0531 8.02649 37.9742 8.04554 37.898 8.08362C37.8218 8.1217 37.7686 8.18721 37.7384 8.28017L37.3688 8.16426C37.4136 8.01082 37.4987 7.88761 37.6242 7.79465C37.7507 7.70169 37.921 7.65521 38.1349 7.65521C38.2962 7.65521 38.4378 7.68153 38.5599 7.73417C38.6831 7.78681 38.7744 7.87305 38.8338 7.99289C38.8662 8.05673 38.8858 8.12225 38.8926 8.18945C38.8993 8.25553 38.9026 8.32777 38.9026 8.40617V9.52001H38.5482V9.12689L38.607 9.19074C38.5252 9.32178 38.4294 9.41809 38.3197 9.47969C38.211 9.54017 38.075 9.57041 37.9114 9.57041ZM37.9921 9.24785C38.0839 9.24785 38.1623 9.23161 38.2273 9.19913C38.2922 9.16665 38.3438 9.1269 38.3818 9.07986C38.421 9.03282 38.4474 8.98857 38.4608 8.94713C38.4821 8.89561 38.4938 8.83681 38.4961 8.77073C38.4994 8.70353 38.5011 8.64921 38.5011 8.60777L38.6254 8.64473C38.5034 8.66377 38.3986 8.68058 38.3113 8.69513C38.2239 8.70969 38.1489 8.72369 38.0862 8.73713C38.0234 8.74945 37.968 8.76345 37.9198 8.77913C37.8728 8.79593 37.833 8.81553 37.8006 8.83793C37.7681 8.86033 37.7429 8.88609 37.725 8.91521C37.7082 8.94433 37.6998 8.9785 37.6998 9.0177C37.6998 9.06249 37.711 9.10225 37.7334 9.13697C37.7558 9.17057 37.7882 9.19745 37.8308 9.21761C37.8745 9.23777 37.9282 9.24785 37.9921 9.24785ZM40.0406 9.57041C39.8166 9.57041 39.6346 9.52001 39.4946 9.41921C39.3546 9.31841 39.2694 9.17674 39.2392 8.99418L39.6525 8.93033C39.6738 9.01993 39.7208 9.0905 39.7936 9.14202C39.8664 9.19354 39.9582 9.21929 40.0691 9.21929C40.1666 9.21929 40.2416 9.20025 40.2942 9.16217C40.348 9.12297 40.3749 9.06977 40.3749 9.00257C40.3749 8.96113 40.3648 8.92809 40.3446 8.90345C40.3256 8.87769 40.283 8.85305 40.217 8.82953C40.1509 8.80601 40.0495 8.77633 39.9129 8.74049C39.7606 8.70017 39.6396 8.65705 39.55 8.61113C39.4604 8.56409 39.396 8.50865 39.3568 8.44481C39.3176 8.38097 39.298 8.3037 39.298 8.21298C39.298 8.09986 39.3277 8.00129 39.387 7.91729C39.4464 7.83329 39.5293 7.7689 39.6357 7.72409C39.7421 7.67818 39.8675 7.65521 40.012 7.65521C40.1531 7.65521 40.278 7.67705 40.3866 7.72073C40.4964 7.76441 40.5849 7.82657 40.6521 7.90721C40.7193 7.98785 40.7607 8.08249 40.7764 8.19113L40.3631 8.26505C40.353 8.18777 40.3178 8.12673 40.2573 8.08193C40.1979 8.03713 40.1184 8.01193 40.0187 8.00633C39.9235 8.00073 39.8468 8.01529 39.7886 8.05001C39.7303 8.08361 39.7012 8.13121 39.7012 8.19281C39.7012 8.22753 39.713 8.25721 39.7365 8.28185C39.76 8.30649 39.807 8.33113 39.8776 8.35577C39.9493 8.38041 40.0557 8.41065 40.1968 8.44649C40.3413 8.48345 40.4566 8.52601 40.5429 8.57417C40.6302 8.62121 40.693 8.67778 40.731 8.74385C40.7702 8.80993 40.7898 8.89001 40.7898 8.98409C40.7898 9.16665 40.7232 9.31002 40.5899 9.41418C40.4578 9.51834 40.2746 9.57041 40.0406 9.57041ZM41.8585 9.57041C41.6345 9.57041 41.4525 9.52001 41.3125 9.41921C41.1725 9.31841 41.0873 9.17674 41.0571 8.99418L41.4704 8.93033C41.4917 9.01993 41.5387 9.0905 41.6115 9.14202C41.6843 9.19354 41.7761 9.21929 41.887 9.21929C41.9845 9.21929 42.0595 9.20025 42.1121 9.16217C42.1659 9.12297 42.1928 9.06977 42.1928 9.00257C42.1928 8.96113 42.1827 8.92809 42.1625 8.90345C42.1435 8.87769 42.1009 8.85305 42.0349 8.82953C41.9688 8.80601 41.8674 8.77633 41.7308 8.74049C41.5785 8.70017 41.4575 8.65705 41.3679 8.61113C41.2783 8.56409 41.2139 8.50865 41.1747 8.44481C41.1355 8.38097 41.1159 8.3037 41.1159 8.21298C41.1159 8.09986 41.1456 8.00129 41.2049 7.91729C41.2643 7.83329 41.3472 7.7689 41.4536 7.72409C41.56 7.67818 41.6854 7.65521 41.8299 7.65521C41.971 7.65521 42.0959 7.67705 42.2045 7.72073C42.3143 7.76441 42.4028 7.82657 42.47 7.90721C42.5372 7.98785 42.5786 8.08249 42.5943 8.19113L42.181 8.26505C42.1709 8.18777 42.1357 8.12673 42.0752 8.08193C42.0158 8.03713 41.9363 8.01193 41.8366 8.00633C41.7414 8.00073 41.6647 8.01529 41.6065 8.05001C41.5482 8.08361 41.5191 8.13121 41.5191 8.19281C41.5191 8.22753 41.5309 8.25721 41.5544 8.28185C41.5779 8.30649 41.6249 8.33113 41.6955 8.35577C41.7672 8.38041 41.8736 8.41065 42.0147 8.44649C42.1592 8.48345 42.2745 8.52601 42.3608 8.57417C42.4481 8.62121 42.5109 8.67778 42.5489 8.74385C42.5881 8.80993 42.6077 8.89001 42.6077 8.98409C42.6077 9.16665 42.5411 9.31002 42.4078 9.41418C42.2757 9.51834 42.0925 9.57041 41.8585 9.57041ZM43.483 9.57041C43.352 9.57041 43.2411 9.54577 43.1504 9.49649C43.0597 9.44609 42.9908 9.37945 42.9437 9.29657C42.8978 9.21369 42.8749 9.12241 42.8749 9.02273C42.8749 8.93537 42.8894 8.85697 42.9185 8.78753C42.9477 8.71697 42.9925 8.65649 43.0529 8.60609C43.1134 8.55457 43.1918 8.51257 43.2881 8.48009C43.3609 8.45657 43.4461 8.43529 43.5435 8.41625C43.6421 8.39722 43.7485 8.37985 43.8627 8.36417C43.9781 8.34737 44.0985 8.32945 44.2239 8.31041L44.0794 8.39274C44.0805 8.2673 44.0525 8.17489 43.9954 8.11553C43.9383 8.05617 43.842 8.02649 43.7065 8.02649C43.6247 8.02649 43.5457 8.04554 43.4696 8.08362C43.3934 8.1217 43.3402 8.18721 43.31 8.28017L42.9404 8.16426C42.9852 8.01082 43.0703 7.88761 43.1957 7.79465C43.3223 7.70169 43.4925 7.65521 43.7065 7.65521C43.8677 7.65521 44.0094 7.68153 44.1315 7.73417C44.2547 7.78681 44.346 7.87305 44.4053 7.99289C44.4378 8.05673 44.4574 8.12225 44.4641 8.18945C44.4709 8.25553 44.4742 8.32777 44.4742 8.40617V9.52001H44.1197V9.12689L44.1785 9.19074C44.0968 9.32178 44.001 9.41809 43.8913 9.47969C43.7826 9.54017 43.6465 9.57041 43.483 9.57041ZM43.5637 9.24785C43.6555 9.24785 43.7339 9.23161 43.7989 9.19913C43.8638 9.16665 43.9153 9.1269 43.9534 9.07986C43.9926 9.03282 44.0189 8.98857 44.0324 8.94713C44.0537 8.89561 44.0654 8.83681 44.0677 8.77073C44.071 8.70353 44.0727 8.64921 44.0727 8.60777L44.197 8.64473C44.0749 8.66377 43.9702 8.68058 43.8829 8.69513C43.7955 8.70969 43.7205 8.72369 43.6577 8.73713C43.595 8.74945 43.5396 8.76345 43.4914 8.77913C43.4444 8.79593 43.4046 8.81553 43.3721 8.83793C43.3397 8.86033 43.3145 8.88609 43.2965 8.91521C43.2797 8.94433 43.2713 8.9785 43.2713 9.0177C43.2713 9.06249 43.2825 9.10225 43.3049 9.13697C43.3273 9.17057 43.3598 9.19745 43.4024 9.21761C43.4461 9.23777 43.4998 9.24785 43.5637 9.24785ZM45.7835 9.57041C45.6065 9.57041 45.4581 9.52841 45.3383 9.44441C45.2185 9.36041 45.1283 9.24617 45.0678 9.10169C45.0073 8.95609 44.9771 8.79313 44.9771 8.61281C44.9771 8.43025 45.0073 8.26673 45.0678 8.12225C45.1283 7.97777 45.2168 7.8641 45.3333 7.78122C45.4509 7.69722 45.5959 7.65521 45.7684 7.65521C45.9397 7.65521 46.0881 7.69722 46.2136 7.78122C46.3401 7.8641 46.4381 7.97777 46.5076 8.12225C46.577 8.26561 46.6117 8.42913 46.6117 8.61281C46.6117 8.79425 46.5776 8.95721 46.5093 9.10169C46.4409 9.24617 46.3446 9.36041 46.2203 9.44441C46.096 9.52841 45.9504 9.57041 45.7835 9.57041ZM44.9082 10.3264V7.70562H45.2661V8.97905H45.3165V10.3264H44.9082ZM45.7213 9.20753C45.8266 9.20753 45.9134 9.18122 45.9817 9.12858C46.0501 9.07594 46.1005 9.00481 46.1329 8.91521C46.1665 8.82449 46.1833 8.72369 46.1833 8.61281C46.1833 8.50305 46.1665 8.40337 46.1329 8.31377C46.0993 8.22305 46.0473 8.15137 45.9767 8.09873C45.9061 8.04497 45.8165 8.01809 45.7079 8.01809C45.6049 8.01809 45.5209 8.04329 45.4559 8.09369C45.3909 8.14297 45.3428 8.21241 45.3114 8.30201C45.2812 8.39049 45.2661 8.49409 45.2661 8.61281C45.2661 8.73041 45.2812 8.83402 45.3114 8.92361C45.3428 9.01321 45.3915 9.08321 45.4576 9.13361C45.5248 9.18289 45.6127 9.20753 45.7213 9.20753ZM47.0156 7.43009V7.05881H47.4205V7.43009H47.0156ZM47.0156 9.52001V7.70562H47.4205V9.52001H47.0156Z" fill="white"/>
<path d="M55.16 0H0.84C0.376081 0 0 0.376081 0 0.84V55.16C0 55.6239 0.376081 56 0.84 56H55.16C55.6239 56 56 55.6239 56 55.16V0.84C56 0.376081 55.6239 0 55.16 0Z" fill="white"/>
<path d="M16.3576 40.5104C15.1032 40.5104 14.0526 40.2804 13.2059 39.8205C12.3592 39.3501 11.7163 38.7334 11.2773 37.9702C10.8487 37.1967 10.6344 36.35 10.6344 35.4301C10.6344 34.5729 10.786 33.8202 11.0891 33.1722C11.3923 32.5241 11.8418 31.9753 12.4376 31.5258C13.0334 31.0659 13.7652 30.6947 14.6328 30.4125C15.3854 30.193 16.2373 29.9996 17.1886 29.8323C18.1399 29.665 19.1381 29.5082 20.1835 29.3619C21.2393 29.2156 22.2846 29.0692 23.3195 28.9229L22.1278 29.5814C22.1487 28.2538 21.8665 27.2713 21.2811 26.6336C20.7061 25.9855 19.7131 25.6614 18.3019 25.6614C17.4133 25.6614 16.598 25.8705 15.8558 26.2886C15.1137 26.6963 14.5963 27.3757 14.3035 28.327L11.2459 27.3862C11.6641 25.9332 12.4585 24.7782 13.6293 23.921C14.8105 23.0637 16.3785 22.6352 18.3333 22.6352C19.8491 22.6352 21.1662 22.8966 22.2846 23.4192C23.4136 23.9315 24.2395 24.7468 24.7621 25.8653C25.0338 26.4193 25.2011 27.0047 25.2638 27.6214C25.3266 28.2381 25.3579 28.902 25.3579 29.6128V40.04H22.4571V36.167L23.0216 36.6688C22.3212 37.9651 21.4274 38.9319 20.3403 39.5696C19.2636 40.1968 17.9361 40.5104 16.3576 40.5104ZM16.9378 37.8291C17.8681 37.8291 18.6677 37.6671 19.3368 37.343C20.0059 37.0086 20.5442 36.5852 20.9518 36.073C21.3595 35.5607 21.6261 35.0276 21.7515 34.4736C21.9292 33.9718 22.0286 33.4074 22.0494 32.7802C22.0808 32.153 22.0965 31.6512 22.0965 31.2749L23.1627 31.6669C22.1278 31.8237 21.187 31.9648 20.3403 32.0902C19.4936 32.2157 18.7253 32.3411 18.0354 32.4666C17.3559 32.5815 16.7496 32.7226 16.2165 32.8899C15.7669 33.0467 15.3646 33.2349 15.0091 33.4544C14.6642 33.6739 14.3871 33.9405 14.1781 34.2541C13.9795 34.5677 13.8802 34.9492 13.8802 35.3987C13.8802 35.8378 13.9899 36.2454 14.2094 36.6218C14.429 36.9876 14.7634 37.2803 15.213 37.4998C15.6625 37.7194 16.2373 37.8291 16.9378 37.8291ZM35.8113 40.4947C34.6406 40.4947 33.658 40.3066 32.8635 39.9302C32.0691 39.5539 31.4209 39.0627 30.9191 38.4563C30.4279 37.8396 30.0516 37.1706 29.7902 36.4493C29.5289 35.728 29.3511 35.0224 29.2571 34.3325C29.163 33.6426 29.1159 33.0362 29.1159 32.5136V23.1056H32.4401V31.4317C32.4401 32.0902 32.4925 32.7697 32.5969 33.4701C32.712 34.16 32.921 34.8029 33.2241 35.3987C33.5377 35.9946 33.9716 36.4755 34.5255 36.8413C35.09 37.2071 35.8218 37.3901 36.7207 37.3901C37.3062 37.3901 37.8602 37.296 38.3828 37.1078C38.9056 36.9092 39.3603 36.5956 39.747 36.167C40.1443 35.7385 40.4526 35.174 40.6721 34.4736C40.9021 33.7732 41.0171 32.9213 41.0171 31.9178L43.0555 32.6861C43.0555 34.2227 42.768 35.5817 42.1931 36.7629C41.6182 37.9337 40.7924 38.8483 39.7156 39.5069C38.639 40.1654 37.3376 40.4947 35.8113 40.4947ZM41.4091 40.04V35.1478H41.0171V23.1056H44.3255V40.04H41.4091Z" fill="#09090B"/>
<mask id="mask0_2_18" style="mask-type:luminance" maskUnits="userSpaceOnUse" x="10" y="22" width="35" height="19">
<path d="M44.52 22.4H10.36V40.74H44.52V22.4Z" fill="white"/>
<path d="M16.3576 40.5104C15.1032 40.5104 14.0526 40.2804 13.2059 39.8205C12.3592 39.3501 11.7163 38.7334 11.2773 37.9702C10.8487 37.1967 10.6344 36.35 10.6344 35.4301C10.6344 34.5729 10.786 33.8202 11.0891 33.1722C11.3923 32.5241 11.8418 31.9753 12.4376 31.5258C13.0334 31.0659 13.7652 30.6947 14.6328 30.4125C15.3854 30.193 16.2373 29.9996 17.1886 29.8323C18.1399 29.665 19.1381 29.5082 20.1835 29.3619C21.2393 29.2156 22.2846 29.0692 23.3195 28.9229L22.1278 29.5814C22.1487 28.2538 21.8665 27.2713 21.2811 26.6336C20.7061 25.9855 19.7131 25.6614 18.3019 25.6614C17.4133 25.6614 16.598 25.8705 15.8558 26.2886C15.1137 26.6963 14.5963 27.3757 14.3035 28.327L11.2459 27.3862C11.6641 25.9332 12.4585 24.7782 13.6293 23.921C14.8105 23.0637 16.3785 22.6352 18.3333 22.6352C19.8491 22.6352 21.1662 22.8966 22.2846 23.4192C23.4136 23.9315 24.2395 24.7468 24.7621 25.8653C25.0338 26.4193 25.2011 27.0047 25.2638 27.6214C25.3266 28.2381 25.3579 28.902 25.3579 29.6128V40.04H22.4571V36.167L23.0216 36.6688C22.3212 37.9651 21.4274 38.9319 20.3403 39.5696C19.2636 40.1968 17.9361 40.5104 16.3576 40.5104ZM16.9378 37.8291C17.8681 37.8291 18.6677 37.6671 19.3368 37.343C20.0059 37.0086 20.5442 36.5852 20.9518 36.073C21.3595 35.5607 21.6261 35.0276 21.7515 34.4736C21.9292 33.9718 22.0286 33.4074 22.0494 32.7802C22.0808 32.153 22.0965 31.6512 22.0965 31.2749L23.1627 31.6669C22.1278 31.8237 21.187 31.9648 20.3403 32.0902C19.4936 32.2157 18.7253 32.3411 18.0354 32.4666C17.3559 32.5815 16.7496 32.7226 16.2165 32.8899C15.7669 33.0467 15.3646 33.2349 15.0091 33.4544C14.6642 33.6739 14.3871 33.9405 14.1781 34.2541C13.9795 34.5677 13.8802 34.9492 13.8802 35.3987C13.8802 35.8378 13.9899 36.2454 14.2094 36.6218C14.429 36.9876 14.7634 37.2803 15.213 37.4998C15.6625 37.7194 16.2373 37.8291 16.9378 37.8291ZM35.8113 40.4947C34.6406 40.4947 33.658 40.3066 32.8635 39.9302C32.0691 39.5539 31.4209 39.0627 30.9191 38.4563C30.4279 37.8396 30.0516 37.1706 29.7902 36.4493C29.5289 35.728 29.3511 35.0224 29.2571 34.3325C29.163 33.6426 29.1159 33.0362 29.1159 32.5136V23.1056H32.4401V31.4317C32.4401 32.0902 32.4925 32.7697 32.5969 33.4701C32.712 34.16 32.921 34.8029 33.2241 35.3987C33.5377 35.9946 33.9716 36.4755 34.5255 36.8413C35.09 37.2071 35.8218 37.3901 36.7207 37.3901C37.3062 37.3901 37.8602 37.296 38.3828 37.1078C38.9056 36.9092 39.3603 36.5956 39.747 36.167C40.1443 35.7385 40.4526 35.174 40.6721 34.4736C40.9021 33.7732 41.0171 32.9213 41.0171 31.9178L43.0555 32.6861C43.0555 34.2227 42.768 35.5817 42.1931 36.7629C41.6182 37.9337 40.7924 38.8483 39.7156 39.5069C38.639 40.1654 37.3376 40.4947 35.8113 40.4947ZM41.4091 40.04V35.1478H41.0171V23.1056H44.3255V40.04H41.4091Z" fill="black"/>
</mask>
<g mask="url(#mask0_2_18)">
<path d="M13.2059 39.8205L13.1379 39.9428L13.1391 39.9435L13.2059 39.8205ZM11.2773 37.9702L11.1548 38.0381L11.1554 38.0391L11.1559 38.0401L11.2773 37.9702ZM12.4376 31.5257L12.5219 31.6375L12.5231 31.6366L12.4376 31.5257ZM14.6328 30.4125L14.5936 30.2781L14.5915 30.2786L14.5895 30.2793L14.6328 30.4125ZM20.1835 29.3619L20.1643 29.2232L20.164 29.2233L20.1835 29.3619ZM23.3195 28.9229L23.3873 29.0454L23.2999 28.7843L23.3195 28.9229ZM22.1278 29.5814L21.9878 29.5792L21.984 29.8208L22.1956 29.7039L22.1278 29.5814ZM21.2811 26.6336L21.1764 26.7265L21.1772 26.7274L21.1779 26.7282L21.2811 26.6336ZM15.8558 26.2886L15.9232 26.4114L15.9246 26.4106L15.8558 26.2886ZM14.3035 28.327L14.2623 28.4609L14.3962 28.502L14.4373 28.3682L14.3035 28.327ZM11.2459 27.3862L11.1114 27.3474L11.0734 27.4796L11.2047 27.5201L11.2459 27.3862ZM13.6293 23.9209L13.547 23.8077L13.5466 23.808L13.6293 23.9209ZM22.2846 23.4192L22.2254 23.546L22.2268 23.5467L22.2846 23.4192ZM24.7621 25.8653L24.6352 25.9245L24.6358 25.9257L24.6363 25.9269L24.7621 25.8653ZM25.3579 40.04V40.18H25.4979V40.04H25.3579ZM22.4571 40.04H22.3171V40.18H22.4571V40.04ZM22.4571 36.167L22.5501 36.0624L22.3171 35.8552V36.167H22.4571ZM23.0216 36.6688L23.1448 36.7353L23.1974 36.6378L23.1145 36.5642L23.0216 36.6688ZM20.3403 39.5696L20.4107 39.6905L20.4111 39.6904L20.3403 39.5696ZM19.3368 37.343L19.3978 37.469L19.3994 37.4682L19.3368 37.343ZM21.7515 34.4736L21.6195 34.4268L21.6168 34.4347L21.615 34.4426L21.7515 34.4736ZM22.0494 32.7801L21.9096 32.7731V32.7743V32.7755L22.0494 32.7801ZM22.0965 31.2749L22.1448 31.1434L21.9565 31.0742V31.2749H22.0965ZM23.1627 31.6669L23.1837 31.8053L23.211 31.5354L23.1627 31.6669ZM18.0353 32.4665L18.0587 32.6046L18.0604 32.6043L18.0353 32.4665ZM16.2165 32.8899L16.1746 32.7563L16.1725 32.757L16.1704 32.7577L16.2165 32.8899ZM15.0091 33.4544L14.9355 33.3352L14.9339 33.3362L15.0091 33.4544ZM14.1781 34.2541L14.0616 34.1764L14.0606 34.1778L14.0598 34.1792L14.1781 34.2541ZM14.2094 36.6217L14.0885 36.6923L14.0894 36.6937L14.2094 36.6217ZM16.3576 40.3704C15.1197 40.3704 14.0936 40.1434 13.2727 39.6974L13.1391 39.9435C14.0116 40.4174 15.0867 40.6504 16.3576 40.6504V40.3704ZM13.2739 39.6981C12.4471 39.2388 11.8237 38.6393 11.3986 37.9004L11.1559 38.0401C11.6089 38.8273 12.2713 39.4614 13.1379 39.9428L13.2739 39.6981ZM11.3997 37.9023C10.9831 37.1504 10.7744 36.3272 10.7744 35.4301H10.4944C10.4944 36.3727 10.7142 37.2429 11.1548 38.0381L11.3997 37.9023ZM10.7744 35.4301C10.7744 34.5894 10.923 33.8577 11.2159 33.2315L10.9623 33.1128C10.6489 33.7828 10.4944 34.5563 10.4944 35.4301H10.7744ZM11.2159 33.2315C11.509 32.605 11.9435 32.0738 12.5219 31.6375L12.3533 31.414C11.74 31.8766 11.2755 32.4432 10.9623 33.1128L11.2159 33.2315ZM12.5231 31.6366C13.1039 31.1882 13.8206 30.8239 14.676 30.5456L14.5895 30.2793C13.7097 30.5655 12.9629 30.9433 12.352 31.4149L12.5231 31.6366ZM14.672 30.5469C15.4187 30.329 16.2656 30.1368 17.2128 29.9702L17.1644 29.6944C16.2092 29.8624 15.3521 30.0569 14.5936 30.2781L14.672 30.5469ZM17.2128 29.9702C18.1623 29.8032 19.159 29.6467 20.203 29.5005L20.164 29.2233C19.1173 29.3697 18.1174 29.5268 17.1644 29.6944L17.2128 29.9702ZM20.2027 29.5006C21.2587 29.3542 22.3041 29.2079 23.3391 29.0615L23.2999 28.7843C22.2652 28.9306 21.2199 29.0769 20.1643 29.2232L20.2027 29.5006ZM23.2517 28.8004L22.0601 29.4589L22.1956 29.7039L23.3873 29.0454L23.2517 28.8004ZM22.2678 29.5837C22.289 28.2388 22.0041 27.214 21.3843 26.5389L21.1779 26.7282C21.729 27.3284 22.0085 28.2689 21.9878 29.5792L22.2678 29.5837ZM21.3858 26.5406C20.7715 25.8482 19.7286 25.5214 18.3019 25.5214V25.8014C19.6976 25.8014 20.6407 26.1227 21.1764 26.7265L21.3858 26.5406ZM18.3019 25.5214C17.3904 25.5214 16.5512 25.7362 15.7871 26.1667L15.9246 26.4106C16.6449 26.0048 17.4364 25.8014 18.3019 25.8014V25.5214ZM15.7885 26.166C15.0088 26.5941 14.4711 27.3064 14.1697 28.2859L14.4373 28.3682C14.7213 27.4452 15.2184 26.7985 15.9232 26.4113L15.7885 26.166ZM14.3447 28.1932L11.2871 27.2524L11.2047 27.5201L14.2623 28.4609L14.3447 28.1932ZM11.3804 27.425C11.7904 26.0004 12.5673 24.872 13.712 24.0339L13.5466 23.808C12.3497 24.6842 11.5377 25.866 11.1114 27.3474L11.3804 27.425ZM13.7115 24.0342C14.8618 23.1995 16.3982 22.7752 18.3333 22.7752V22.4952C16.3588 22.4952 14.7591 22.9281 13.547 23.8077L13.7115 24.0342ZM18.3333 22.7752C19.8331 22.7752 21.1292 23.0338 22.2254 23.546L22.3438 23.2923C21.2031 22.7592 19.8649 22.4952 18.3333 22.4952V22.7752ZM22.2268 23.5467C23.3255 24.0451 24.1267 24.8364 24.6352 25.9245L24.8889 25.806C24.352 24.6571 23.5016 23.8176 22.3424 23.2916L22.2268 23.5467ZM24.6363 25.9269C24.9008 26.466 25.0635 27.0352 25.1245 27.6356L25.4031 27.6073C25.3387 26.9741 25.1669 26.3726 24.8878 25.8037L24.6363 25.9269ZM25.1245 27.6356C25.1867 28.2469 25.2179 28.9061 25.2179 29.6128H25.4979C25.4979 28.8979 25.4664 28.2293 25.4031 27.6073L25.1245 27.6356ZM25.2179 29.6128V40.04H25.4979V29.6128H25.2179ZM25.3579 39.9H22.4571V40.18H25.3579V39.9ZM22.5971 40.04V36.167H22.3171V40.04H22.5971ZM22.3641 36.2716L22.9286 36.7734L23.1145 36.5642L22.5501 36.0624L22.3641 36.2716ZM22.8984 36.6023C22.2082 37.8798 21.3311 38.8262 20.2695 39.4488L20.4111 39.6904C21.5239 39.0377 22.4343 38.0502 23.1448 36.7353L22.8984 36.6023ZM20.2699 39.4486C19.2195 40.0604 17.9177 40.3704 16.3576 40.3704V40.6504C17.9543 40.6504 19.3077 40.3331 20.4107 39.6905L20.2699 39.4486ZM16.9377 37.9691C17.884 37.9691 18.7057 37.8043 19.3978 37.469L19.2757 37.217C18.6299 37.5298 17.8521 37.6891 16.9377 37.6891V37.9691ZM19.3994 37.4682C20.0841 37.1259 20.6393 36.6903 21.0613 36.1602L20.8423 35.9857C20.4489 36.4799 19.9276 36.8911 19.2742 37.2179L19.3994 37.4682ZM21.0613 36.1602C21.4802 35.6339 21.7572 35.082 21.888 34.5045L21.615 34.4426C21.4949 34.9732 21.2388 35.4875 20.8423 35.9857L21.0613 36.1602ZM21.8835 34.5203C22.0668 34.0029 22.168 33.4239 22.1893 32.7848L21.9096 32.7755C21.889 33.3908 21.7917 33.9407 21.6195 34.4268L21.8835 34.5203ZM22.1893 32.7871C22.2206 32.159 22.2365 31.6545 22.2365 31.2749H21.9565C21.9565 31.6478 21.9409 32.1469 21.9096 32.7731L22.1893 32.7871ZM22.0482 31.4063L23.1144 31.7983L23.211 31.5354L22.1448 31.1434L22.0482 31.4063ZM23.1417 31.5284C22.107 31.6852 21.1663 31.8263 20.3197 31.9518L20.3609 32.2287C21.2077 32.1032 22.1487 31.9621 23.1837 31.8053L23.1417 31.5284ZM20.3197 31.9518C19.4719 32.0773 18.702 32.2031 18.0103 32.3288L18.0604 32.6043C18.7485 32.4791 19.5153 32.354 20.3609 32.2287L20.3197 31.9518ZM18.012 32.3285C17.3276 32.4443 16.715 32.5868 16.1746 32.7563L16.2583 33.0235C16.7842 32.8585 17.3841 32.7187 18.0587 32.6046L18.012 32.3285ZM16.1704 32.7577C15.7126 32.9173 15.3006 33.1097 14.9355 33.3352L15.0826 33.5735C15.4284 33.36 15.8214 33.1761 16.2625 33.0221L16.1704 32.7577ZM14.9339 33.3362C14.574 33.5654 14.2824 33.8453 14.0616 34.1764L14.2945 34.3318C14.4919 34.0357 14.7543 33.7824 15.0843 33.5725L14.9339 33.3362ZM14.0598 34.1792C13.8442 34.5195 13.7401 34.9283 13.7401 35.3987H14.0201C14.0201 34.9702 14.1146 34.6158 14.2964 34.329L14.0598 34.1792ZM13.7401 35.3987C13.7401 35.8624 13.8564 36.2944 14.0885 36.6923L14.3304 36.5512C14.1235 36.1964 14.0201 35.8131 14.0201 35.3987H13.7401ZM14.0894 36.6937C14.3251 37.0867 14.6819 37.3964 15.1515 37.6257L15.2744 37.374C14.8449 37.1642 14.5328 36.8886 14.3294 36.5498L14.0894 36.6937ZM15.1515 37.6257C15.6262 37.8575 16.224 37.9691 16.9377 37.9691V37.6891C16.2506 37.6891 15.6986 37.5812 15.2744 37.374L15.1515 37.6257ZM30.9191 38.4563L30.8096 38.5435L30.8105 38.5445L30.8113 38.5456L30.9191 38.4563ZM29.1159 23.1056V22.9656H28.9759V23.1056H29.1159ZM32.4401 23.1056H32.5801V22.9656H32.4401V23.1056ZM32.5969 33.4701L32.4584 33.4908L32.4586 33.4919L32.4588 33.493L32.5969 33.4701ZM33.2241 35.3987L33.0993 35.4623L33.1002 35.4639L33.2241 35.3987ZM34.5255 36.8413L34.4484 36.958L34.4494 36.9587L34.5255 36.8413ZM38.3828 37.1078L38.4303 37.2396L38.4314 37.2391L38.4325 37.2387L38.3828 37.1078ZM39.747 36.167L39.6443 36.0718L39.6431 36.0732L39.747 36.167ZM40.6721 34.4736L40.5391 34.4299L40.5385 34.4317L40.6721 34.4736ZM41.017 31.9177L41.0665 31.7867L40.877 31.7153V31.9177H41.017ZM43.0554 32.6861H43.1954V32.5892L43.1049 32.555L43.0554 32.6861ZM42.193 36.7629L42.3188 36.8246L42.3189 36.8242L42.193 36.7629ZM41.409 40.04H41.269V40.18H41.409V40.04ZM41.409 35.1478H41.549V35.0078H41.409V35.1478ZM41.017 35.1478H40.877V35.2878H41.017V35.1478ZM41.017 23.1056V22.9656H40.877V23.1056H41.017ZM44.3255 23.1056H44.4655V22.9656H44.3255V23.1056ZM44.3255 40.04V40.18H44.4655V40.04H44.3255ZM35.8113 40.3547C34.6547 40.3547 33.6941 40.1686 32.9234 39.8037L32.8035 40.0568C33.6218 40.4444 34.6263 40.6347 35.8113 40.6347V40.3547ZM32.9234 39.8037C32.1452 39.4352 31.5143 38.9558 31.0271 38.367L30.8113 38.5456C31.3276 39.1693 31.9928 39.6726 32.8035 40.0568L32.9234 39.8037ZM31.0286 38.3691C30.5466 37.7639 30.1778 37.1081 29.9218 36.4015L29.6586 36.497C29.9253 37.233 30.3091 37.9152 30.8096 38.5435L31.0286 38.3691ZM29.9218 36.4015C29.6635 35.6886 29.4885 34.9927 29.3958 34.3136L29.1183 34.3514C29.2139 35.0521 29.3942 35.7673 29.6586 36.497L29.9218 36.4015ZM29.3958 34.3136C29.3023 33.628 29.2559 33.0282 29.2559 32.5136H28.9759C28.9759 33.0443 29.0237 33.6571 29.1183 34.3514L29.3958 34.3136ZM29.2559 32.5136V23.1056H28.9759V32.5136H29.2559ZM29.1159 23.2456H32.4401V22.9656H29.1159V23.2456ZM32.3001 23.1056V31.4317H32.5801V23.1056H32.3001ZM32.3001 31.4317C32.3001 32.0976 32.353 32.7841 32.4584 33.4908L32.7353 33.4493C32.6317 32.7554 32.5801 32.0828 32.5801 31.4317H32.3001ZM32.4588 33.493C32.576 34.1964 32.7894 34.853 33.0993 35.4621L33.349 35.3353C33.0526 34.7527 32.8478 34.1236 32.7351 33.4471L32.4588 33.493ZM33.1002 35.4639C33.4247 36.0804 33.8744 36.579 34.4484 36.958L34.6027 36.7245C34.0687 36.3717 33.6508 35.9087 33.348 35.3335L33.1002 35.4639ZM34.4494 36.9587C35.043 37.3434 35.8036 37.5301 36.7207 37.5301V37.2501C35.84 37.2501 35.137 37.0707 34.6017 36.7238L34.4494 36.9587ZM36.7207 37.5301C37.3215 37.5301 37.8915 37.4335 38.4303 37.2396L38.3355 36.9761C37.8288 37.1585 37.2908 37.2501 36.7207 37.2501V37.5301ZM38.4325 37.2387C38.9767 37.0319 39.4497 36.7053 39.851 36.2608L39.6431 36.0732C39.2707 36.4859 38.8343 36.7865 38.3331 36.9769L38.4325 37.2387ZM39.8497 36.2622C40.2641 35.8149 40.5815 35.2307 40.8056 34.5154L40.5385 34.4317C40.3236 35.1172 40.0243 35.6619 39.6443 36.0718L39.8497 36.2622ZM40.8051 34.5173C41.0411 33.7988 41.157 32.9311 41.157 31.9177H40.877C40.877 32.9115 40.7631 33.7477 40.5391 34.4299L40.8051 34.5173ZM40.9678 32.0488L43.0062 32.8171L43.1049 32.555L41.0665 31.7867L40.9678 32.0488ZM42.9154 32.6861C42.9154 34.2051 42.6314 35.5425 42.0672 36.7015L42.3189 36.8242C42.9047 35.6209 43.1954 34.2403 43.1954 32.6861H42.9154ZM42.0675 36.7011C41.5038 37.849 40.6959 38.7432 39.6425 39.3874L39.7887 39.6263C40.8888 38.9534 41.7326 38.0184 42.3188 36.8246L42.0675 36.7011ZM39.6425 39.3874C38.5921 40.0299 37.3171 40.3547 35.8113 40.3547V40.6347C37.3579 40.6347 38.6858 40.3009 39.7887 39.6263L39.6425 39.3874ZM41.549 40.04V35.1478H41.269V40.04H41.549ZM41.409 35.0078H41.017V35.2878H41.409V35.0078ZM41.157 35.1478V23.1056H40.877V35.1478H41.157ZM41.017 23.2456H44.3255V22.9656H41.017V23.2456ZM44.1855 23.1056V40.04H44.4655V23.1056H44.1855ZM44.3255 39.9H41.409V40.18H44.3255V39.9Z" fill="black"/>
</g>
</g>
<defs>
<clipPath id="clip0_2_18">
<rect width="56" height="56" fill="white"/>
</clipPath>
</defs>
</svg>
